<svg width="287" height="64" viewBox="0 0 287 64" fill="none" xmlns="http://www.w3.org/2000/svg">
<path d="M16.3907 9.356C17.4927 14.982 22.7707 42.88 23.8147 49.028C24.1627 50.768 24.2787 52.856 24.5687 55.118L34.6607 53.378C34.1387 51.348 33.5587 49.202 33.1527 47.462C31.7027 40.386 26.3667 12.43 25.6707 7.906C25.3807 6.456 25.2067 4.31 25.0327 3.15L15.1147 4.716C15.5787 6.166 15.9847 7.616 16.3907 9.356ZM0.846743 16.2L2.70274 25.77C4.84874 25.19 6.41474 24.842 8.38674 24.436C12.2727 23.74 32.3407 20.55 38.6047 19.564C40.4607 19.332 43.1287 18.926 44.6367 18.81L42.9547 9.646C41.3307 10.11 38.7207 10.69 36.8067 11.038C31.7607 12.024 11.3447 15.156 6.53074 15.736C4.73274 15.968 2.87674 16.084 0.846743 16.2ZM1.02074 33.368L2.99274 42.648C4.32674 42.3 6.53074 41.894 9.14074 41.43C14.8247 40.328 35.7047 36.906 42.8387 35.804C45.0427 35.456 47.7107 34.992 49.4507 34.876L47.5947 25.654C45.9127 26.118 43.4767 26.698 41.2147 27.162C34.6607 28.438 13.7227 31.744 7.51674 32.672C5.54474 32.962 2.64474 33.31 1.02074 33.368ZM93.2407 13.126L85.9327 9.472C84.7727 9.994 81.2347 10.342 79.5527 10.342C76.3627 10.342 67.1987 10.342 62.9647 10.342C60.9927 10.342 57.8607 10.11 55.8887 9.878V19.738C58.0927 19.564 60.5867 19.448 63.0227 19.448C67.1987 19.448 77.2907 19.448 81.4667 19.448C81.2927 23.566 78.9727 36.906 78.0447 42.242H88.4267C89.2967 36.848 91.7327 22.058 92.5447 16.2C92.6027 15.736 92.9507 14.054 93.2407 13.126ZM49.6247 39.4V49.608C51.6547 49.376 53.8587 49.26 55.7147 49.26H94.1107C95.5607 49.26 98.1707 49.376 99.8527 49.608V39.4C98.3447 39.632 96.3147 39.922 94.1107 39.922H55.7147C53.8007 39.922 51.5387 39.748 49.6247 39.4ZM116.925 51.64C116.114 51.64 115.453 51.4053 114.941 50.936C114.429 50.424 114.066 49.6987 113.853 48.76C113.511 47.1813 113.213 44.8987 112.957 41.912C112.701 38.9253 112.573 35.6187 112.573 31.992C112.573 27.512 112.722 23.2027 113.021 19.064C113.362 14.9253 113.789 11.5333 114.301 8.888C114.855 6.02933 115.538 3.93866 116.349 2.616C117.159 1.25066 118.226 0.567997 119.549 0.567997C120.743 0.567997 121.661 1.12266 122.301 2.232C122.941 3.29866 123.261 5.15466 123.261 7.8C123.261 10.4453 123.154 13.2827 122.941 16.312C122.77 19.3413 122.471 22.584 122.045 26.04H122.301C125.074 22.2853 127.655 19.2773 130.045 17.016C132.477 14.7547 134.695 13.112 136.701 12.088C138.749 11.064 140.562 10.552 142.141 10.552C143.378 10.552 144.295 10.936 144.893 11.704C145.49 12.472 145.789 13.4107 145.789 14.52C145.789 16.696 144.039 19.128 140.541 21.816C137.085 24.504 132.093 27.256 125.565 30.072L125.629 29.048C129.682 31.1387 133.159 33.336 136.061 35.64C139.005 37.9013 141.245 40.056 142.781 42.104C144.359 44.1093 145.149 45.7947 145.149 47.16C145.149 48.2693 144.786 49.1867 144.061 49.912C143.378 50.5947 142.375 50.936 141.053 50.936C139.389 50.936 137.533 50.3173 135.485 49.08C133.479 47.8 131.389 45.9013 129.213 43.384C127.037 40.8667 124.861 37.7093 122.685 33.912H122.429C122.386 36.6 122.215 39.224 121.917 41.784C121.661 44.3013 121.319 46.3707 120.893 47.992C120.594 49.1013 120.125 49.9973 119.485 50.68C118.887 51.32 118.034 51.64 116.925 51.64ZM158.564 63.736C156.26 63.736 155.108 62.4987 155.108 60.024C155.108 58.6587 155.577 57.0373 156.516 55.16C157.454 53.2827 158.82 51.256 160.612 49.08C162.446 46.904 164.665 44.6853 167.268 42.424L167.204 42.936C161.529 37.304 157.22 32.3547 154.276 28.088C151.374 23.8213 149.924 20.1307 149.924 17.016C149.924 15.48 150.308 14.2853 151.076 13.432C151.886 12.5787 152.953 12.152 154.276 12.152C157.092 12.152 159.886 14.2 162.66 18.296C165.433 22.392 168.057 28.6213 170.532 36.984H170.788C172.409 28.1947 174.137 21.752 175.972 17.656C177.806 13.5173 179.982 11.448 182.5 11.448C183.694 11.448 184.569 11.8747 185.124 12.728C185.721 13.5387 186.02 14.6907 186.02 16.184C186.02 17.4213 185.742 19.064 185.188 21.112C184.676 23.1173 183.929 25.4 182.948 27.96C182.009 30.4773 180.9 33.1013 179.62 35.832C178.382 38.5627 177.017 41.2507 175.524 43.896C171.726 50.7653 168.484 55.7787 165.796 58.936C163.108 62.136 160.697 63.736 158.564 63.736ZM221.62 50.616C220.468 50.616 219.572 50.232 218.932 49.464C218.335 48.6533 217.93 47.6293 217.716 46.392C217.503 45.112 217.396 43.768 217.396 42.36L217.716 42.104C217.29 43.9387 216.458 45.5173 215.22 46.84C213.983 48.1627 212.554 49.1867 210.932 49.912C209.311 50.5947 207.69 50.936 206.068 50.936C203.892 50.936 201.908 50.424 200.116 49.4C198.324 48.376 196.938 46.7973 195.956 44.664C194.975 42.4027 194.207 39.5653 193.652 36.152C193.098 32.696 192.82 29.1547 192.82 25.528C192.82 23.5653 192.906 21.752 193.076 20.088C193.247 18.424 193.524 17.0587 193.908 15.992C194.25 14.8827 194.762 14.072 195.444 13.56C196.127 13.0053 197.002 12.728 198.068 12.728C199.306 12.728 200.266 13.2187 200.948 14.2C201.674 15.1387 202.122 16.4613 202.292 18.168C202.463 19.576 202.57 21.3253 202.612 23.416C202.698 25.464 202.762 27.5333 202.804 29.624C202.89 31.672 202.996 33.4 203.124 34.808C203.38 37.368 204.042 39.2667 205.108 40.504C206.175 41.6987 207.476 42.296 209.012 42.296C211.274 42.296 213.002 41.4427 214.196 39.736C215.391 38.0293 215.988 35.64 215.988 32.568C215.988 31.032 215.903 29.304 215.732 27.384C215.562 25.4213 215.37 23.5227 215.156 21.688C214.986 19.8533 214.9 18.3387 214.9 17.144C214.9 15.1387 215.242 13.7093 215.924 12.856C216.607 11.96 217.546 11.512 218.74 11.512C219.764 11.512 220.618 11.7893 221.3 12.344C222.026 12.8987 222.602 13.6667 223.028 14.648C223.626 15.928 224.138 17.6773 224.564 19.896C224.991 22.1147 225.332 24.632 225.588 27.448C225.844 30.264 225.972 33.2293 225.972 36.344C225.972 41.1227 225.652 44.7067 225.012 47.096C224.372 49.4427 223.242 50.616 221.62 50.616ZM263.838 50.616C262.686 50.616 261.79 50.232 261.15 49.464C260.552 48.6533 260.147 47.6293 259.934 46.392C259.72 45.112 259.614 43.768 259.614 42.36L259.934 42.104C259.507 43.9387 258.675 45.5173 257.438 46.84C256.2 48.1627 254.771 49.1867 253.15 49.912C251.528 50.5947 249.907 50.936 248.286 50.936C246.11 50.936 244.126 50.424 242.334 49.4C240.542 48.376 239.155 46.7973 238.174 44.664C237.192 42.4027 236.424 39.5653 235.87 36.152C235.315 32.696 235.038 29.1547 235.038 25.528C235.038 23.5653 235.123 21.752 235.294 20.088C235.464 18.424 235.742 17.0587 236.126 15.992C236.467 14.8827 236.979 14.072 237.662 13.56C238.344 13.0053 239.219 12.728 240.286 12.728C241.523 12.728 242.483 13.2187 243.166 14.2C243.891 15.1387 244.339 16.4613 244.51 18.168C244.68 19.576 244.787 21.3253 244.83 23.416C244.915 25.464 244.979 27.5333 245.022 29.624C245.107 31.672 245.214 33.4 245.342 34.808C245.598 37.368 246.259 39.2667 247.326 40.504C248.392 41.6987 249.694 42.296 251.23 42.296C253.491 42.296 255.219 41.4427 256.414 39.736C257.608 38.0293 258.206 35.64 258.206 32.568C258.206 31.032 258.12 29.304 257.95 27.384C257.779 25.4213 257.587 23.5227 257.374 21.688C257.203 19.8533 257.118 18.3387 257.118 17.144C257.118 15.1387 257.459 13.7093 258.142 12.856C258.824 11.96 259.763 11.512 260.958 11.512C261.982 11.512 262.835 11.7893 263.518 12.344C264.243 12.8987 264.819 13.6667 265.246 14.648C265.843 15.928 266.355 17.6773 266.782 19.896C267.208 22.1147 267.55 24.632 267.806 27.448C268.062 30.264 268.19 33.2293 268.19 36.344C268.19 41.1227 267.87 44.7067 267.23 47.096C266.59 49.4427 265.459 50.616 263.838 50.616ZM275.399 46.456C275.399 45.048 275.698 43.9173 276.295 43.064C276.893 42.168 277.639 41.5067 278.535 41.08C279.474 40.6533 280.455 40.44 281.479 40.44C283.186 40.44 284.487 40.9307 285.383 41.912C286.322 42.8933 286.791 44.216 286.791 45.88C286.791 47.928 286.215 49.4213 285.063 50.36C283.911 51.256 282.503 51.704 280.839 51.704C279.09 51.704 277.746 51.2347 276.807 50.296C275.869 49.3147 275.399 48.0347 275.399 46.456ZM281.799 3.448C283.506 3.448 284.701 4.32266 285.383 6.072C286.109 7.77866 286.471 10.232 286.471 13.432C286.471 16.4187 286.322 19.4267 286.023 22.456C285.725 25.4853 285.319 28.024 284.807 30.072C284.253 32.3333 283.634 33.9973 282.951 35.064C282.269 36.088 281.373 36.6 280.263 36.6C278.642 36.6 277.511 35.0853 276.871 32.056C276.231 29.0267 275.911 24.0987 275.911 17.272C275.911 13.8587 276.082 11.1493 276.423 9.144C276.765 7.13866 277.362 5.688 278.215 4.792C279.069 3.896 280.263 3.448 281.799 3.448Z" fill="#313131"/>
</svg>
